<svg width="238" height="131" viewBox="0 0 238 131" fill="none" xmlns="http://www.w3.org/2000/svg">
<g clip-path="url(#clip0_10_12)">
<path d="M13.9553 25.167C14.315 18.3309 20.1417 12.8926 27.2857 12.8926C34.4297 12.8926 40.2564 17.435 40.6161 24.271H53.9554C53.9554 11.1724 40.9353 0.461403 27.7937 0.465883H24.4128C13.5327 0.465883 0.521526 9.10275 0.0224796 19.8182C0.00899182 19.9616 0 20.1094 0 20.2572V54.5449C0 54.9212 0.0314714 55.293 0.0764305 55.6603H0V60.0549C0 71.2139 14.261 80.2629 25.4603 80.2629L29.736 80.2001C40.9398 80.2001 53.9464 71.2183 53.9464 60.0549V52.968H40.6071V55.6558C40.2474 62.4919 34.4207 67.9302 27.2767 67.9302C20.1327 67.9302 14.306 62.4919 13.9463 55.6558H13.9283V25.167H13.9463H13.9553Z" fill="#EFCAA1"/>
<path d="M74.2545 0.465881V31.8238H40.7869V45.7109H74.2545V80.2046H88.1918V45.7109V31.8238V0.465881H74.2545Z" fill="#EFCAA1"/>
<path d="M189.04 13.1927C182.242 4.80672 172.49 0 162.28 0C152.07 0 142.318 4.8112 135.52 13.1927C129.509 20.6066 126.2 30.247 126.2 40.3308C126.2 50.4146 129.509 60.0549 135.52 67.4688C142.318 75.8548 152.07 80.6616 162.28 80.6616C172.49 80.6616 182.242 75.8504 189.04 67.4688C195.051 60.0549 198.36 50.4146 198.36 40.3308C198.36 30.247 195.051 20.6066 189.04 13.1927ZM162.28 64.8572C150.869 64.8572 141.621 53.4474 141.621 39.3721C141.621 25.2969 150.869 13.8871 162.28 13.8871C173.69 13.8871 182.939 25.2969 182.939 39.3721C182.939 53.4474 173.69 64.8572 162.28 64.8572Z" fill="#EFCAA1"/>
<path d="M139.454 80.2001C136.069 77.8752 132.971 75.0216 130.273 71.6977C128.898 69.9999 127.643 68.1945 126.519 66.3131H109.381V0.465881H95.4437V80.2001H139.454Z" fill="#EFCAA1"/>
<path d="M185.605 0.488281C188.977 2.80877 192.065 5.65338 194.754 8.97284C196.139 10.6796 197.393 12.4894 198.521 14.3754H237.87V0.488281H185.605Z" fill="#EFCAA1"/>
<path d="M204.879 31.8462C205.337 34.6236 205.571 37.4638 205.571 40.3353C205.571 42.1495 205.468 43.9504 205.283 45.7333H227.628V31.8462H204.879Z" fill="#EFCAA1"/>
<path d="M198.521 66.2906C197.388 68.1811 196.139 69.9864 194.754 71.6932C192.065 75.0126 188.977 77.8528 185.605 80.1777H237.87V66.2906H198.521Z" fill="#EFCAA1"/>
<path d="M180.97 115.21C180.76 114.73 180.64 114.31 180.64 113.98C180.64 113.53 180.76 113.14 181.03 112.84C181.3 112.54 181.63 112.39 182.02 112.42C182.83 114.25 183.97 115.63 185.47 116.59C185.56 114.88 185.59 112.18 185.59 108.49C185.59 103.54 185.5 100.21 185.32 98.47C185.35 98.32 185.47 98.23 185.74 98.2C186.01 98.17 186.28 98.26 186.61 98.44C187.42 98.95 187.87 99.85 187.96 101.2C187.99 101.41 187.99 101.95 187.99 102.85C187.99 110.02 187.66 114.85 187.03 117.34C187.66 117.55 188.29 117.64 188.95 117.64C191.11 117.64 192.82 116.59 194.11 114.49C195.28 112.6 195.85 110.26 195.85 107.47C195.85 104.2 195.07 101.47 193.51 99.25C191.74 96.73 189.37 95.59 186.37 95.8C184.48 95.92 182.95 96.61 181.78 97.84C180.76 98.95 180.25 100.21 180.25 101.65C180.25 102.85 180.64 103.84 181.39 104.65C182.2 105.52 183.34 105.94 184.75 105.94C184.87 106.27 184.81 106.63 184.54 107.02C184.24 107.47 183.76 107.68 183.13 107.68C181.48 107.68 180.19 107.17 179.26 106.12C178.42 105.19 178 103.96 178 102.46C178 100.3 178.78 98.38 180.37 96.73C182.14 94.87 184.42 93.94 187.24 93.94C190.78 93.94 193.57 95.35 195.64 98.14C197.47 100.63 198.37 103.66 198.37 107.23C198.37 110.53 197.59 113.32 196.03 115.57C194.32 118.06 192.04 119.32 189.19 119.32C188.32 119.32 187.39 119.2 186.46 118.93C186.19 119.44 185.92 119.71 185.62 119.71C185.23 119.71 185.08 119.32 185.2 118.54C183.07 117.73 181.66 116.62 180.97 115.21ZM200.867 98.23C201.017 97.48 201.407 96.94 202.097 96.58C202.757 96.19 203.117 96.25 203.177 96.73C203.177 96.94 202.967 98.05 202.577 100.06C202.427 100.96 202.067 101.41 201.497 101.41C200.687 101.41 200.477 100.36 200.867 98.23ZM199.577 114.34C199.487 112.51 199.637 110.29 199.997 107.62C200.117 106.78 200.537 106.12 201.287 105.64C201.587 105.46 201.827 105.37 202.037 105.4C202.247 105.4 202.337 105.52 202.307 105.76C201.497 112.39 201.347 115.69 201.887 115.69C202.037 115.69 202.217 115.51 202.457 115.15C203.027 114.31 203.537 113.26 203.957 111.97C204.167 111.82 204.377 111.94 204.587 112.3C204.857 112.69 204.887 113.11 204.707 113.59C203.717 116.53 202.517 118 201.077 118C200.177 118 199.667 116.77 199.577 114.34ZM210.483 118.18C210.273 125.32 209.163 128.89 207.123 128.89C206.103 128.89 205.173 128.35 204.303 127.3C203.463 126.28 202.983 125.11 202.863 123.79C202.713 122.35 203.043 121.18 203.853 120.25C204.783 119.14 206.283 118.57 208.353 118.54V115.72C207.873 117.25 207.063 118 205.953 118C205.053 118 204.423 117.34 204.063 116.02C203.703 114.79 203.643 113.32 203.883 111.61C204.123 109.87 204.603 108.4 205.293 107.23C206.073 105.91 207.003 105.25 208.113 105.25C208.923 105.25 209.523 105.49 209.973 105.94C210.333 106.33 210.513 106.84 210.483 107.41C210.453 107.98 210.273 108.4 209.913 108.73C209.523 109.06 209.073 109.12 208.533 108.91C208.683 108.28 208.713 107.74 208.623 107.32C208.533 106.93 208.323 106.72 208.053 106.72C207.303 106.72 206.673 108.22 206.193 111.25C205.683 114.28 205.773 115.81 206.433 115.81C207.183 115.81 207.813 113.86 208.353 109.96C208.743 109.78 209.193 109.78 209.643 109.99C210.123 110.2 210.393 110.59 210.423 111.13L210.513 115.9C211.563 114.43 212.253 113.11 212.523 111.97C212.703 111.82 212.883 111.94 213.063 112.27C213.273 112.63 213.303 113.05 213.183 113.56C212.613 115.66 211.713 117.19 210.483 118.18ZM208.323 119.92C205.983 120.07 204.903 121.33 205.113 123.67C205.203 124.54 205.443 125.32 205.833 126.07C206.223 126.79 206.613 127.15 206.973 127.18C207.723 127.21 208.173 124.78 208.323 119.92ZM213.611 98.23C213.761 97.48 214.151 96.94 214.841 96.58C215.501 96.19 215.861 96.25 215.921 96.73C215.921 96.94 215.711 98.05 215.321 100.06C215.171 100.96 214.811 101.41 214.241 101.41C213.431 101.41 213.221 100.36 213.611 98.23ZM212.321 114.34C212.231 112.51 212.381 110.29 212.741 107.62C212.861 106.78 213.281 106.12 214.031 105.64C214.331 105.46 214.571 105.37 214.781 105.4C214.991 105.4 215.081 105.52 215.051 105.76C214.241 112.39 214.091 115.69 214.631 115.69C214.781 115.69 214.961 115.51 215.201 115.15C215.771 114.31 216.281 113.26 216.701 111.97C216.911 111.82 217.121 111.94 217.331 112.3C217.601 112.69 217.631 113.11 217.451 113.59C216.461 116.53 215.261 118 213.821 118C212.921 118 212.411 116.77 212.321 114.34ZM213.777 102.67L217.467 102.61C217.497 102.25 217.527 101.86 217.617 101.44C217.737 100.6 218.157 99.94 218.907 99.46C219.207 99.28 219.447 99.19 219.657 99.22C219.867 99.22 219.957 99.34 219.927 99.58C219.837 100.21 219.717 101.2 219.597 102.55C224.007 102.46 226.587 102.46 227.397 102.49C227.457 103.06 227.127 103.33 226.377 103.36C224.817 103.45 222.507 103.57 219.477 103.69C218.727 111.7 218.577 115.69 218.967 115.69C219.177 115.69 219.387 115.51 219.627 115.15C220.377 114.04 220.917 112.99 221.187 111.97C221.367 111.82 221.577 111.94 221.787 112.27C222.027 112.63 222.087 113.05 221.937 113.56C221.637 114.61 221.157 115.57 220.497 116.44C219.747 117.49 218.967 118 218.157 118C217.047 118 216.507 116.71 216.597 114.16C216.687 111.16 216.927 107.71 217.317 103.78C215.007 103.87 213.717 103.9 213.447 103.9C212.997 103.9 212.847 103.72 212.967 103.33C213.087 102.97 213.357 102.76 213.777 102.67ZM225.58 115.69C225.07 117.34 224.29 118.18 223.18 118.18C222.31 118.18 221.65 117.49 221.26 116.11C220.93 114.85 220.87 113.32 221.08 111.55C221.32 109.75 221.8 108.25 222.49 107.02C223.3 105.64 224.23 104.95 225.34 104.95C226.15 104.95 226.78 105.19 227.2 105.7C227.59 106.12 227.74 106.63 227.71 107.26C227.68 107.86 227.5 108.34 227.17 108.67C226.78 109.06 226.3 109.12 225.76 108.91C225.94 108.28 225.97 107.68 225.88 107.14C225.79 106.6 225.58 106.33 225.28 106.33C224.53 106.33 223.93 107.95 223.42 111.16C222.94 114.37 223.03 115.99 223.66 115.99C224.41 115.99 225.04 113.98 225.58 109.96C226 109.75 226.45 109.78 226.93 110.02C227.44 110.29 227.68 110.71 227.65 111.28L227.5 114.4C227.44 115.27 227.5 115.69 227.68 115.69C227.83 115.69 228.01 115.51 228.25 115.15C228.82 114.31 229.33 113.26 229.75 111.97C229.96 111.82 230.17 111.94 230.38 112.3C230.65 112.69 230.68 113.11 230.5 113.59C229.51 116.53 228.34 118 226.99 118C226.24 118 225.79 117.22 225.58 115.69ZM235.607 97.75C235.877 99.19 235.877 100.96 235.637 103.09C235.367 105.22 234.947 107.05 234.347 108.58C233.657 110.26 232.907 111.13 232.067 111.22C231.977 114.67 232.367 116.41 233.237 116.41C234.467 116.41 235.547 114.94 236.537 111.97C236.717 111.82 236.927 111.94 237.137 112.27C237.347 112.66 237.377 113.08 237.227 113.59C236.717 115.12 236.027 116.29 235.157 117.13C234.377 117.88 233.537 118.27 232.667 118.27C230.507 118.27 229.637 115.18 230.057 109.03C230.297 105.73 230.717 102.79 231.347 100.21C232.127 97.12 232.997 95.5 233.957 95.41C234.767 95.38 235.337 96.16 235.607 97.75ZM232.127 109.66L232.097 109.99C232.847 108.94 233.477 106.51 233.927 102.7C234.377 98.95 234.377 97.09 233.927 97.09C233.627 97.09 233.267 98.83 232.817 102.34C232.427 105.43 232.187 107.89 232.127 109.66Z" fill="black"/>
</g>
<defs>
<clipPath id="clip0_10_12">
<rect width="238" height="131" fill="white"/>
</clipPath>
</defs>
</svg>
